<?xml version="1.0" encoding="UTF-8"?>
<svg version="1.1" xmlns="http://www.w3.org/2000/svg" width="200" height="75">
<path d="M0 0 C0.90714249 -0.00524185 1.81428497 -0.0104837 2.74891663 -0.0158844 C4.66096985 -0.02228686 6.57306255 -0.02099068 8.48510742 -0.01245117 C11.39769179 -0.00394266 14.30831226 -0.03272452 17.22070312 -0.06445312 C19.08463483 -0.06606548 20.94856999 -0.06548695 22.8125 -0.0625 C23.67624741 -0.07373398 24.53999481 -0.08496796 25.42991638 -0.09654236 C31.25825216 -0.02994445 34.78653765 0.87160937 39.47265625 4.43359375 C43.0070408 9.34469448 42.9260052 14.13478139 42.90625 19.9609375 C42.91149185 20.86807999 42.9167337 21.77522247 42.9221344 22.70985413 C42.92853686 24.62190735 42.92724068 26.53400005 42.91870117 28.44604492 C42.91019266 31.35862929 42.93897452 34.26924976 42.97070312 37.18164062 C42.97231548 39.04557233 42.97173695 40.90950749 42.96875 42.7734375 C42.98560097 44.06905861 42.98560097 44.06905861 43.00279236 45.39085388 C42.93619445 51.21918966 42.03464063 54.74747515 38.47265625 59.43359375 C33.56155552 62.9679783 28.77146861 62.8869427 22.9453125 62.8671875 C22.03817001 62.87242935 21.13102753 62.8776712 20.19639587 62.8830719 C18.28434265 62.88947436 16.37224995 62.88817818 14.46020508 62.87963867 C11.54762071 62.87113016 8.63700024 62.89991202 5.72460938 62.93164062 C3.86067767 62.93325298 1.99674251 62.93267445 0.1328125 62.9296875 C-0.73093491 62.94092148 -1.59468231 62.95215546 -2.48460388 62.96372986 C-8.31293966 62.89713195 -11.84122515 61.99557813 -16.52734375 58.43359375 C-20.0617283 53.52249302 -19.9806927 48.73240611 -19.9609375 42.90625 C-19.96617935 41.99910751 -19.9714212 41.09196503 -19.9768219 40.15733337 C-19.98322436 38.24528015 -19.98192818 36.33318745 -19.97338867 34.42114258 C-19.96488016 31.50855821 -19.99366202 28.59793774 -20.02539062 25.68554688 C-20.02700298 23.82161517 -20.02642445 21.95768001 -20.0234375 20.09375 C-20.03467148 19.23000259 -20.04590546 18.36625519 -20.05747986 17.47633362 C-19.99088195 11.64799784 -19.08932813 8.11971235 -15.52734375 3.43359375 C-10.61624302 -0.1007908 -5.82615611 -0.0197552 0 0 Z " fill="#39A499" transform="translate(21.52734375,5.56640625)"/>
<path d="M0 0 C1.64645508 -0.0299707 1.64645508 -0.0299707 3.32617188 -0.06054688 C4.38255859 -0.05990234 5.43894531 -0.05925781 6.52734375 -0.05859375 C7.492771 -0.06044678 8.45819824 -0.0622998 9.45288086 -0.06420898 C12.83069147 0.58518767 14.00585528 1.71841986 16.0625 4.4375 C16.58007812 6.48046875 16.58007812 6.48046875 16.59375 8.625 C16.59890625 9.40617187 16.6040625 10.18734375 16.609375 10.9921875 C16.59390625 11.79914062 16.5784375 12.60609375 16.5625 13.4375 C16.57796875 14.24445312 16.5934375 15.05140625 16.609375 15.8828125 C16.60421875 16.66398437 16.5990625 17.44515625 16.59375 18.25 C16.58923828 18.95769531 16.58472656 19.66539063 16.58007812 20.39453125 C15.82459138 23.37656573 14.47493882 24.57688605 12.0625 26.4375 C9.56054688 26.95507812 9.56054688 26.95507812 6.78125 26.96875 C5.77449219 26.97390625 4.76773437 26.9790625 3.73046875 26.984375 C2.16232422 26.96117187 2.16232422 26.96117187 0.5625 26.9375 C-0.48292969 26.95296875 -1.52835938 26.9684375 -2.60546875 26.984375 C-3.61222656 26.97921875 -4.61898438 26.9740625 -5.65625 26.96875 C-6.57341797 26.96423828 -7.49058594 26.95972656 -8.43554688 26.95507812 C-11.73309565 26.27291542 -12.92065902 25.09873426 -14.9375 22.4375 C-15.43920898 20.28686523 -15.43920898 20.28686523 -15.43359375 17.99609375 C-15.43423828 17.16529297 -15.43488281 16.33449219 -15.43554688 15.47851562 C-15.41556641 14.61935547 -15.39558594 13.76019531 -15.375 12.875 C-15.38208984 12.01197266 -15.38917969 11.14894531 -15.39648438 10.25976562 C-15.33343036 4.0174177 -15.33343036 4.0174177 -13.74804688 1.6953125 C-9.88687253 -0.98709988 -4.53014042 -0.02915831 0 0 Z " fill="#FBFDFD" transform="translate(25.9375,23.5625)"/>
<path d="M0 0 C13.75 -0.125 13.75 -0.125 16 1 C16.66 0.67 17.32 0.34 18 0 C21.5 -0.25 21.5 -0.25 25 0 C27.45391569 3.68087353 27.22802759 6.44355588 27.125 10.6875 C27.11597656 11.38939453 27.10695312 12.09128906 27.09765625 12.81445312 C27.07413704 14.54311525 27.03826713 16.27160145 27 18 C25.02 18 23.04 18 21 18 C20.67 14.04 20.34 10.08 20 6 C19.01 6 18.02 6 17 6 C17 9.96 17 13.92 17 18 C14.69 18 12.38 18 10 18 C10 14.04 10 10.08 10 6 C8.68 6 7.36 6 6 6 C6 9.96 6 13.92 6 18 C4.02 18 2.04 18 0 18 C0 12.06 0 6.12 0 0 Z " fill="#3BC0AA" transform="translate(166,31)"/>
<path d="M0 0 C1.59134766 -0.00386719 1.59134766 -0.00386719 3.21484375 -0.0078125 C6.0625 0.125 6.0625 0.125 9.0625 1.125 C9.0625 3.435 9.0625 5.745 9.0625 8.125 C8.4025 7.795 7.7425 7.465 7.0625 7.125 C3.20188967 5.83812989 0.12099717 5.98742382 -3.9375 6.125 C-3.9375 9.755 -3.9375 13.385 -3.9375 17.125 C-1.6275 17.455 0.6825 17.785 3.0625 18.125 C3.0625 16.805 3.0625 15.485 3.0625 14.125 C1.4125 14.125 -0.2375 14.125 -1.9375 14.125 C-1.9375 12.805 -1.9375 11.485 -1.9375 10.125 C1.6925 10.125 5.3225 10.125 9.0625 10.125 C9.0625 14.085 9.0625 18.045 9.0625 22.125 C6.26518195 23.52365903 3.86965441 23.37037267 0.75 23.4375 C-0.38050781 23.47488281 -1.51101562 23.51226562 -2.67578125 23.55078125 C-6.58054057 23.04105818 -8.15898129 21.85290817 -10.9375 19.125 C-12.90502105 15.1899579 -12.40172595 10.4144478 -11.9375 6.125 C-8.63067699 0.61362831 -6.17495526 -0.01496959 0 0 Z " fill="#2680AA" transform="translate(92.9375,25.875)"/>
<path d="M0 0 C5.61 0 11.22 0 17 0 C17 1.32 17 2.64 17 4 C13.7 4 10.4 4 7 4 C7 5.32 7 6.64 7 8 C9.97 8 12.94 8 16 8 C16 9.32 16 10.64 16 12 C13.03 12 10.06 12 7 12 C7 14.31 7 16.62 7 19 C10.3 19 13.6 19 17 19 C17 20.32 17 21.64 17 23 C11.39 23 5.78 23 0 23 C0 15.41 0 7.82 0 0 Z " fill="#2680AA" transform="translate(106,26)"/>
<path d="M0 0 C2.625 1.375 2.625 1.375 4 4 C4.71310035 8.56687674 4.79453746 12.48315576 2.625 16.625 C-1.5054733 18.78858125 -5.44441919 18.73526013 -10 18 C-13.43238723 15.90708096 -13.86428892 14.48855989 -14.9375 10.625 C-15.00868355 6.49635418 -14.2150419 4.44562073 -12 1 C-8.28854853 -0.85572573 -4.05131023 -0.43780288 0 0 Z M-7 5 C-8.35618499 6.12534105 -8.35618499 6.12534105 -8.0625 9.0625 C-8.041875 10.031875 -8.02125 11.00125 -8 12 C-5.525 12.495 -5.525 12.495 -3 13 C-1.98459888 8.89776415 -1.98459888 8.89776415 -3 5 C-4.32 5 -5.64 5 -7 5 Z " fill="#2680AA" transform="translate(139,31)"/>
<path d="M0 0 C2.625 1.375 2.625 1.375 4 4 C4.71310035 8.56687674 4.79453746 12.48315576 2.625 16.625 C-1.5054733 18.78858125 -5.44441919 18.73526013 -10 18 C-13.43238723 15.90708096 -13.86428892 14.48855989 -14.9375 10.625 C-15.00868355 6.49635418 -14.2150419 4.44562073 -12 1 C-8.28854853 -0.85572573 -4.05131023 -0.43780288 0 0 Z M-7 5 C-8.35618499 6.12534105 -8.35618499 6.12534105 -8.0625 9.0625 C-8.041875 10.031875 -8.02125 11.00125 -8 12 C-5.525 12.495 -5.525 12.495 -3 13 C-1.98459888 8.89776415 -1.98459888 8.89776415 -3 5 C-4.32 5 -5.64 5 -7 5 Z " fill="#267FAA" transform="translate(159,31)"/>
<path d="M0 0 C0 7.26 0 14.52 0 22 C-4 23 -4 23 -6.140625 21.91796875 C-9.20588118 19.4033234 -11.54716663 17.39179668 -12.796875 13.55078125 C-13.11697941 9.53100854 -12.77727652 7.03697405 -10.328125 3.76953125 C-4.99842271 -1.24960568 -4.99842271 -1.24960568 0 0 Z " fill="#F6FBFA" transform="translate(55,26)"/>
<path d="M0 0 C4.29 0 8.58 0 13 0 C13 1.32 13 2.64 13 4 C12.01 4 11.02 4 10 4 C10 8.95 10 13.9 10 19 C10.99 19 11.98 19 13 19 C13 20.32 13 21.64 13 23 C8.71 23 4.42 23 0 23 C0 21.68 0 20.36 0 19 C0.99 19 1.98 19 3 19 C3 14.05 3 9.1 3 4 C2.01 4 1.02 4 0 4 C0 2.68 0 1.36 0 0 Z " fill="#2E8DA6" transform="translate(66,26)"/>
<path d="M0 0 C5.61 0 11.22 0 17 0 C17 1.32 17 2.64 17 4 C13.7 4 10.4 4 7 4 C7 5.32 7 6.64 7 8 C9.97 8 12.94 8 16 8 C16 8.66 16 9.32 16 10 C10.72 10 5.44 10 0 10 C0 6.7 0 3.4 0 0 Z " fill="#55DE81" transform="translate(106,26)"/>
<path d="M0 0 C0.99 0.33 1.98 0.66 3 1 C3 3.31 3 5.62 3 8 C2.34 7.67 1.68 7.34 1 7 C-2.86061033 5.71312989 -5.94150283 5.86242382 -10 6 C-10.33 6.99 -10.66 7.98 -11 9 C-13.31 9 -15.62 9 -18 9 C-17.7365632 5.83875839 -17.15914751 4.20305028 -15.1875 1.6875 C-10.3048708 -0.89742134 -5.42065769 -0.47102581 0 0 Z " fill="#55DE81" transform="translate(99,26)"/>
<path d="M0 0 C2.625 1.75 2.625 1.75 4 4 C4 5.32 4 6.64 4 8 C2.02 8 0.04 8 -2 8 C-2.33 7.01 -2.66 6.02 -3 5 C-4.97536745 5.34786708 -4.97536745 5.34786708 -7 6 C-7.33 6.66 -7.66 7.32 -8 8 C-10.31 8 -12.62 8 -15 8 C-11.65028301 -0.37429246 -8.76419273 -1.03191302 0 0 Z " fill="#53DC84" transform="translate(139,31)"/>
<path d="M0 0 C2.625 1.8125 2.625 1.8125 4 4 C4 4.99 4 5.98 4 7 C1.69 7 -0.62 7 -3 7 C-3 6.34 -3 5.68 -3 5 C-3.70125 5.33 -4.4025 5.66 -5.125 6 C-8.26003116 7.09044562 -10.70563182 7.15322643 -14 7 C-13.6875 4.625 -13.6875 4.625 -13 2 C-8.77355266 -0.81763156 -4.96469944 -0.67441907 0 0 Z " fill="#56DF81" transform="translate(159,31)"/>
<path d="M0 0 C2.29160319 -0.02692484 4.58329546 -0.04636124 6.875 -0.0625 C8.15117187 -0.07410156 9.42734375 -0.08570312 10.7421875 -0.09765625 C14 0 14 0 16 1 C16.66 0.67 17.32 0.34 18 0 C20.3329866 -0.04022391 22.66706666 -0.04320247 25 0 C25.66 1.32 26.32 2.64 27 4 C18.09 4 9.18 4 0 4 C0 2.68 0 1.36 0 0 Z " fill="#56DF81" transform="translate(166,31)"/>
<path d="M0 0 C5.28 0 10.56 0 16 0 C16 0.66 16 1.32 16 2 C13.03 2 10.06 2 7 2 C7 3.32 7 4.64 7 6 C4.69 6 2.38 6 0 6 C0 4.02 0 2.04 0 0 Z " fill="#40C9A4" transform="translate(106,36)"/>
<path d="M0 0 C4.29 0 8.58 0 13 0 C13 1.32 13 2.64 13 4 C8.52745503 5.49084832 4.47254497 5.49084832 0 4 C0 2.68 0 1.36 0 0 Z " fill="#4ED88C" transform="translate(66,26)"/>
<path d="M0 0 C2.31 0 4.62 0 7 0 C7.33 2.64 7.66 5.28 8 8 C5.36 8 2.72 8 0 8 C0 5.36 0 2.72 0 0 Z " fill="#2B96B0" transform="translate(81,35)"/>
<path d="M0 0 C2.31 0 4.62 0 7 0 C7 2.64 7 5.28 7 8 C4.69 8 2.38 8 0 8 C0 5.36 0 2.72 0 0 Z " fill="#2785AC" transform="translate(176,41)"/>
<path d="M0 0 C3.63 0 7.26 0 11 0 C11 1.65 11 3.3 11 5 C7.37 4.67 3.74 4.34 0 4 C0 2.68 0 1.36 0 0 Z " fill="#37BBB0" transform="translate(91,36)"/>
<path d="M0 0 C2.31 0 4.62 0 7 0 C7 2.31 7 4.62 7 7 C4.69 7 2.38 7 0 7 C0 4.69 0 2.38 0 0 Z " fill="#37BEB4" transform="translate(69,31)"/>
<path d="M0 0 C1.98 0 3.96 0 6 0 C6 2.64 6 5.28 6 8 C4.02 8 2.04 8 0 8 C0 5.36 0 2.72 0 0 Z " fill="#2784AB" transform="translate(166,41)"/>
<path d="M0 0 C1.98 0 3.96 0 6 0 C6 1.98 6 3.96 6 6 C4.02 6 2.04 6 0 6 C0 4.02 0 2.04 0 0 Z " fill="#267FAA" transform="translate(187,43)"/>
<path d="M0 0 C0 1.32 0 2.64 0 4 C-2.31 4 -4.62 4 -7 4 C-7 2.68 -7 1.36 -7 0 C-4.3333581 -1.33332095 -2.83319697 -0.67102033 0 0 Z " fill="#36BCB3" transform="translate(183,37)"/>
<path d="M0 0 C2.31 0 4.62 0 7 0 C7 1.32 7 2.64 7 4 C4.69 4 2.38 4 0 4 C0 2.68 0 1.36 0 0 Z " fill="#36B5AF" transform="translate(144,38)"/>
<path d="M0 0 C2.31 0 4.62 0 7 0 C7 1.32 7 2.64 7 4 C4.69 4 2.38 4 0 4 C0 2.68 0 1.36 0 0 Z " fill="#30ADB6" transform="translate(106,38)"/>
<path d="M0 0 C2.31 0 4.62 0 7 0 C7 1.32 7 2.64 7 4 C4.69 4 2.38 4 0 4 C0 2.68 0 1.36 0 0 Z " fill="#2A94B0" transform="translate(69,38)"/>
<path d="M0 0 C2.31 0 4.62 0 7 0 C7 1.32 7 2.64 7 4 C4.69 4 2.38 4 0 4 C0 2.68 0 1.36 0 0 Z " fill="#3CC3AB" transform="translate(81,35)"/>
<path d="M0 0 C2.31 0 4.62 0 7 0 C7 1.32 7 2.64 7 4 C5.02 4 3.04 4 1 4 C0.67 2.68 0.34 1.36 0 0 Z " fill="#31ADB5" transform="translate(124,39)"/>
<path d="M0 0 C1.98 0 3.96 0 6 0 C6 1.32 6 2.64 6 4 C3.69 4 1.38 4 -1 4 C-0.67 2.68 -0.34 1.36 0 0 Z " fill="#32B0B4" transform="translate(137,39)"/>
<path d="M0 0 C1.98 0 3.96 0 6 0 C6 1.32 6 2.64 6 4 C4.02 4 2.04 4 0 4 C0 2.68 0 1.36 0 0 Z " fill="#36B5AF" transform="translate(157,38)"/>
<path d="M0 0 C2.31 0 4.62 0 7 0 C7 0.99 7 1.98 7 3 C4.69 3 2.38 3 0 3 C0 2.01 0 1.02 0 0 Z " fill="#30ABB7" transform="translate(69,35)"/>
<path d="M0 0 C1.98 0 3.96 0 6 0 C6 0.99 6 1.98 6 3 C4.02 3 2.04 3 0 3 C0 2.01 0 1.02 0 0 Z " fill="#34B8B7" transform="translate(166,38)"/>
</svg>
